<?xml version="1.0" encoding="UTF-8"?>
<svg viewBox="0 0 89 40" version="1.1" xmlns="http://www.w3.org/2000/svg" xmlns:xlink="http://www.w3.org/1999/xlink">
    <g stroke="none" stroke-width="1" fill="none" fill-rule="evenodd">
        <g fill-rule="nonzero">
            <polygon fill="#E60032" points="9.85029 15.4153 24.0728 15.4153 24.0728 0.64035 33.9244 0.64035 33.9244 38.9332 24.0728 38.9332 24.0728 23.138 9.85029 23.138 9.85029 38.9332 0 38.9332 0 0.64035 9.85029 0.64035"></polygon>
            <path d="M65.8297,0.64035 L65.8297,21.4624 C65.8297,22.5795 65.8717,23.7222 65.9559,24.8905 C66.0207,25.9852 66.2761,27.0598 66.7103,28.0648 C67.1312,29.0166 67.8221,29.8207 68.6956,30.3754 C69.6002,30.9677 70.8731,31.2639 72.5141,31.2639 C74.1552,31.2639 75.4217,30.9677 76.3137,30.3754 C77.1779,29.8099 77.8662,29.0089 78.2989,28.0648 C78.7479,27.0634 79.0128,25.9878 79.0805,24.8905 C79.1629,23.7222 79.2045,22.5795 79.2054,21.4624 L79.2054,0.64035 L89,0.64035 L89,22.8336 C89,28.793 87.6512,33.1439 84.9535,35.8863 C82.2559,38.6288 78.1094,40 72.5141,40 C66.918,40 62.7633,38.6288 60.0503,35.8863 C57.2807,33.0876 55.9794,28.8492 55.9794,22.8336 L55.9794,0.64035 L65.8297,0.64035 Z" fill="#E60032"></path>
            <path d="M44.2062,33.5018 L58.3188,33.5018 L58.3188,38.9332 L32.8673,38.9332 L46.0218,22.8391 C47.3137,21.2366 48.3993,19.848 49.2786,18.6733 C49.9994,17.7283 50.6671,16.7431 51.2788,15.7225 C52.2115,14.1684 52.6778,12.7711 52.6778,11.5306 C52.6778,9.74529 52.0559,8.24929 50.812,7.04261 C49.5681,5.83593 48.0302,5.23259 46.1982,5.23259 C42.3707,5.23259 40.1787,7.52208 39.6223,12.1011 L33.923,12.1011 C34.8394,4.03369 38.8724,0 46.0218,0 C49.474,0 52.3689,1.10749 54.7065,3.32248 C57.0586,5.53838 58.2346,8.28311 58.2346,11.5567 C58.2346,13.6391 57.6864,15.6804 56.59,17.6806 C55.8673,18.9739 55.0509,20.2114 54.1474,21.3829 C53.0754,22.8135 51.7216,24.5047 50.086,26.4564 L44.2062,33.5018 Z" fill="#000000"></path>
        </g>
    </g>
</svg>