<svg width="89" height="40" viewBox="0 0 89 40" fill="none" xmlns="http://www.w3.org/2000/svg">
<path d="M9.85029 15.4153H24.0728V0.64035H33.9244V38.9332H24.0728V23.138H9.85029V38.9332H0V0.64035H9.85029V15.4153Z" fill="#E60032"/>
<path d="M65.8297 0.64035V21.4624C65.8297 22.5795 65.8717 23.7222 65.9559 24.8905C66.0207 25.9852 66.2761 27.0598 66.7103 28.0648C67.1312 29.0166 67.8221 29.8207 68.6956 30.3754C69.6002 30.9677 70.8731 31.2639 72.5141 31.2639C74.1552 31.2639 75.4217 30.9677 76.3137 30.3754C77.1779 29.8099 77.8662 29.0089 78.2989 28.0648C78.7479 27.0634 79.0128 25.9878 79.0805 24.8905C79.1629 23.7222 79.2045 22.5795 79.2054 21.4624V0.64035H89V22.8336C89 28.793 87.6512 33.1439 84.9535 35.8863C82.2559 38.6288 78.1094 40 72.5141 40C66.918 40 62.7633 38.6288 60.0503 35.8863C57.2807 33.0876 55.9794 28.8492 55.9794 22.8336V0.64035H65.8297Z" fill="#E60032"/>
<path d="M44.2062 33.5018H58.3188V38.9332H32.8673L46.0218 22.8391C47.3137 21.2366 48.3993 19.848 49.2786 18.6733C49.9994 17.7283 50.6671 16.7431 51.2788 15.7225C52.2115 14.1684 52.6778 12.7711 52.6778 11.5306C52.6778 9.74529 52.0559 8.24929 50.812 7.04261C49.5681 5.83593 48.0302 5.23259 46.1982 5.23259C42.3707 5.23259 40.1787 7.52208 39.6223 12.1011H33.923C34.8394 4.03369 38.8724 0 46.0218 0C49.474 0 52.3689 1.10749 54.7065 3.32248C57.0586 5.53838 58.2346 8.28311 58.2346 11.5567C58.2346 13.6391 57.6864 15.6804 56.59 17.6806C55.8673 18.9739 55.0509 20.2114 54.1474 21.3829C53.0754 22.8135 51.7216 24.5047 50.086 26.4564L44.2062 33.5018Z" fill="black"/>
</svg>
