<svg viewBox="0 0 121 54" fill="none" xmlns="http://www.w3.org/2000/svg">
<g clip-path="url(#clip0_1323_2846)">
<path d="M13.7813 20.8106H32.9577V0.864441H46.2408V52.5598H32.9577V31.2363H13.7813V52.5598H0.5V0.864441H13.7813V20.8106Z" fill="white"/>
<path d="M89.2591 0.864441V28.9742C89.2591 30.4823 89.3158 32.0249 89.4292 33.6021C89.5166 35.08 89.861 36.5307 90.4465 37.8875C91.014 39.1723 91.9456 40.2579 93.1232 41.0067C94.343 41.8064 96.0592 42.2062 98.2718 42.2062C100.484 42.2062 102.192 41.8064 103.395 41.0067C104.56 40.2434 105.488 39.162 106.072 37.8875C106.677 36.5356 107.034 35.0834 107.125 33.6021C107.236 32.0249 107.293 30.4823 107.294 28.9742V0.864441H120.5V30.8254C120.5 38.8705 118.681 44.7442 115.044 48.4465C111.407 52.1488 105.816 54 98.2718 54C90.7264 54 85.1247 52.1488 81.4667 48.4465C77.7324 44.6683 75.9778 38.9464 75.9778 30.8254V0.864441H89.2591Z" fill="white"/>
<path d="M60.1039 45.2274H79.1321V52.5598H44.8156L62.552 30.8328C64.2938 28.6694 65.7575 26.7948 66.9431 25.209C67.9149 23.9332 68.8153 22.6032 69.64 21.2253C70.8976 19.1274 71.5263 17.241 71.5263 15.5664C71.5263 13.1561 70.6878 11.1365 69.0106 9.50753C67.3334 7.87851 65.2598 7.064 62.7898 7.064C57.6291 7.064 54.6736 10.1548 53.9235 16.3364H46.239C47.4746 5.44548 52.9123 0 62.552 0C67.2066 0 71.1098 1.49511 74.2616 4.48534C77.433 7.47681 79.0187 11.1822 79.0187 15.6015C79.0187 18.4128 78.2795 21.1686 76.8012 23.8688C75.8268 25.6148 74.726 27.2854 73.5078 28.8669C72.0624 30.7983 70.2371 33.0813 68.0317 35.7162L60.1039 45.2274Z" fill="black"/>
</g>
<defs>
<clipPath id="clip0_1323_2846">
<rect fill="white" transform="translate(0.5)"/>
</clipPath>
</defs>
</svg>
