<?xml version="1.0" encoding="UTF-8"?>
<svg viewBox="0 0 401 116" version="1.1" xmlns="http://www.w3.org/2000/svg" xmlns:xlink="http://www.w3.org/1999/xlink">
    <g id="Page-1" stroke="none" stroke-width="1" fill="none" fill-rule="evenodd">
        <g id="helloeroWhite">
            <path d="M192.989,59.3503985 C196.748,60.8647985 200.774,61.5960985 204.823,61.5000985 L204.823,61.5406985 C208.863,61.5974985 212.874,60.8420985 216.62,59.3186985 C220.366,57.7952985 223.771,55.5346985 226.637,52.6694985 C229.502,49.8043985 231.77,46.3922985 233.306,42.6336985 C234.843,38.8750985 235.618,34.8455985 235.585,30.7816985 C235.668,26.7162985 234.914,22.6775985 233.37,18.9194985 C231.826,15.1613985 229.526,11.7651985 226.615,8.9442585 C220.777,3.2101285 212.942,-3.55271368e-15 204.783,-3.55271368e-15 C196.623,-3.55271368e-15 188.788,3.2101285 182.951,8.9442585 C180.052,11.7700985 177.766,15.1692985 176.237,18.9277985 C174.709,22.6861985 173.971,26.7222985 174.071,30.7816985 C173.979,34.8506985 174.719,38.8952985 176.247,42.6641985 C177.775,46.4330985 180.056,49.8456985 182.951,52.6900985 C185.814,55.5702985 189.229,57.8360985 192.989,59.3503985 Z M210.987,45.7209985 C209.027,46.5022985 206.929,46.8695985 204.823,46.7998985 C202.717,46.8681985 200.62,46.4998985 198.663,45.7178985 C196.705,44.9357985 194.928,43.7568985 193.442,42.2542985 C191.957,40.7517985 190.795,38.9577985 190.029,36.9840985 C189.263,35.0102985 188.908,32.8990985 188.988,30.7816985 C188.935,28.6556985 189.305,26.5403985 190.077,24.5604985 C190.849,22.5806985 192.008,20.7761985 193.484,19.2535985 C194.96,17.7308985 196.724,16.5207985 198.672,15.6945985 C200.621,14.8683985 202.714,14.4426985 204.828,14.4426985 C206.942,14.4426985 209.035,14.8683985 210.984,15.6945985 C212.932,16.5207985 214.696,17.7308985 216.172,19.2535985 C217.649,20.7761985 218.807,22.5806985 219.579,24.5604985 C220.351,26.5403985 220.721,28.6556985 220.668,30.7816985 C220.748,32.8998985 220.393,35.0120985 219.626,36.9864985 C218.859,38.9609985 217.697,40.7553985 216.21,42.2580985 C214.724,43.7607985 212.946,44.9395985 210.987,45.7209985 Z M31.5081,2.7196185 L31.5081,1.2394585 L52.1608,1.2394585 L52.1608,60.2430985 L37.2332,60.2430985 L37.2332,38.1116985 L20.7333,38.1116985 L20.7333,60.2430985 L5.72508,60.2430985 L5.72508,7.9204585 C5.72508,5.3453785 4.03175,2.7196185 0,2.7196185 L0,1.2394585 L20.7333,1.2394585 L20.7333,23.2897985 L37.2332,23.2897985 L37.2332,7.9204585 C37.2332,5.3453785 35.5399,2.7196185 31.5081,2.7196185 Z M124.178,1.2394585 L124.178,46.0801985 L137.392,46.0497985 L137.392,60.2430985 L109.17,60.2430985 L109.17,7.9103185 C109.17,5.3453785 107.476,2.7196185 103.445,2.7196185 L103.445,1.2394585 L124.178,1.2394585 Z M158.508,46.0801985 L158.508,1.2394585 L137.775,1.2394585 L137.775,2.7196185 C141.807,2.7196185 143.5,5.3453785 143.5,7.9103185 L143.5,60.2430985 L171.722,60.2430985 L171.722,46.0497985 L158.508,46.0801985 Z M76.8048,15.3110985 L76.8048,46.0801985 L99.5137,46.0497985 L99.5137,60.2430985 L61.8067,60.2430985 L61.8067,7.7176885 C61.716,5.2135885 60.0126,2.7196185 56.0817,2.7196185 L56.0817,1.2394585 L99.1004,1.2394585 L99.1004,15.3110985 L76.8048,15.3110985 Z M96.5604057,30.7412985 C96.5604057,32.4540985 96.0553,34.1283985 95.109,35.5523985 C94.1627,36.9763985 92.8178,38.0860985 91.2443,38.7410985 C89.6709,39.3960985 87.9396,39.5669985 86.2696,39.2320985 C84.5996,38.8971985 83.0658,38.0715985 81.8624,36.8597985 C80.659,35.6478985 79.84,34.1042985 79.509,32.4241985 C79.178,30.7439985 79.3499,29.0028985 80.0029,27.4209985 C80.656,25.8391985 81.7608,24.4876985 83.1777,23.5375985 C84.5946,22.5873985 86.2598,22.0813985 87.9627,22.0833926 C89.0926,22.0833926 90.2114,22.3073985 91.2552,22.7425985 C92.299,23.1777985 93.2472,23.8156985 94.0457,24.6197985 C94.8443,25.4238985 95.4773,26.3783985 95.9088,27.4287985 C96.3403,28.4791985 96.5617,29.6047985 96.5604057,30.7412985 Z M369.248,61.5000985 C365.199,61.5977985 361.172,60.8672985 357.413,59.3528985 C353.653,57.8384985 350.238,55.5716985 347.376,52.6900985 C344.478,49.8476985 342.193,46.4355985 340.664,42.6663985 C339.134,38.8971985 338.393,34.8516985 338.486,30.7816985 C338.387,26.7214985 339.127,22.6849985 340.657,18.9264985 C342.187,15.1679985 344.475,11.7691985 347.376,8.9442285 C353.212,3.2131385 361.046,0.0049216 369.202,0.0049216 C377.359,0.0049216 385.193,3.2131385 391.029,8.9442285 C393.945,11.7620985 396.247,15.1577985 397.792,18.9166985 C399.336,22.6754985 400.088,26.7155985 400,30.7816985 C400.033,34.8446985 399.258,38.8732985 397.722,42.6312985 C396.186,46.3891985 393.919,49.8007985 391.055,52.6657985 C388.19,55.5308985 384.786,57.7916985 381.041,59.3156985 C377.297,60.8396985 373.287,61.5960985 369.248,61.5405985 L369.248,61.5000985 Z M369.248,46.7998985 C371.353,46.8681985 373.45,46.4997985 375.408,45.7177985 C377.366,44.9357985 379.143,43.7567985 380.628,42.2542985 C382.114,40.7516985 383.276,38.9577985 384.042,36.9839985 C384.808,35.0102985 385.162,32.8989985 385.082,30.7816985 C385.136,28.6555985 384.766,26.5403985 383.993,24.5604985 C383.221,22.5805985 382.063,20.7761985 380.587,19.2534985 C379.111,17.7308985 377.347,16.5207985 375.398,15.6945985 C373.45,14.8682985 371.357,14.4426985 369.243,14.4426985 C367.128,14.4426985 365.035,14.8682985 363.087,15.6945985 C361.139,16.5207985 359.375,17.7308985 357.898,19.2534985 C356.422,20.7761985 355.264,22.5805985 354.492,24.5604985 C353.72,26.5403985 353.35,28.6555985 353.403,30.7816985 C353.323,32.8998985 353.677,35.0119985 354.444,36.9864985 C355.211,38.9608985 356.374,40.7553985 357.861,42.2580985 C359.347,43.7607985 361.125,44.9395985 363.084,45.7208985 C365.043,46.5022985 367.141,46.8695985 369.248,46.7998985 Z M332.118,31.3962985 C330.364,34.3466985 327.853,36.7678985 324.848,38.4056985 L336.953,60.2430985 L320.826,60.2430985 L310.556,41.1936985 L305.193,41.1936985 L305.193,60.2430985 L290.195,60.2430985 L290.195,7.9204485 C290.195,5.3453685 288.502,2.7196085 284.47,2.7196085 L284.47,1.2597185 L313.7,1.2597185 C316.458,1.1842985 319.203,1.6587985 321.777,2.6558385 C324.351,3.6528785 326.703,5.1527185 328.698,7.0688485 C330.702,8.9097785 332.287,11.1648985 333.343,13.6795985 C334.399,16.1941985 334.902,18.9087985 334.817,21.6372985 C334.804,25.0748985 333.872,28.4457985 332.118,31.3962985 Z M305.234,28.3587985 L313.539,28.3587985 L313.539,28.4196985 C317.218,28.5007985 319.819,25.7938985 319.819,21.8399985 C319.819,17.8861985 317.218,15.1792985 313.539,15.1792985 L305.234,15.1792985 L305.234,28.3587985 Z M257.871,46.0801985 L257.871,15.3110985 L280.207,15.3110985 L280.207,1.2394585 L237.148,1.2394585 L237.148,2.7196185 C241.079,2.7196185 242.782,5.2135885 242.873,7.7176885 L242.873,60.2430985 L280.58,60.2430985 L280.58,46.0497985 L257.871,46.0801985 Z M276.175,35.5523985 C277.121,34.1283985 277.626013,32.4540985 277.626013,30.7412985 C277.628,29.6047985 277.406,28.4791985 276.975,27.4287985 C276.543,26.3783985 275.91,25.4238985 275.112,24.6197985 C274.313,23.8156985 273.365,23.1777985 272.321,22.7425985 C271.277,22.3073985 270.159,22.0833926 269.029,22.0833926 C267.326,22.0813985 265.66,22.5873985 264.244,23.5375985 C262.827,24.4876985 261.722,25.8391985 261.069,27.4209985 C260.416,29.0028985 260.244,30.7439985 260.575,32.4241985 C260.906,34.1042985 261.725,35.6478985 262.928,36.8597985 C264.132,38.0715985 265.665,38.8971985 267.336,39.2320985 C269.006,39.5669985 270.737,39.3960985 272.31,38.7410985 C273.884,38.0860985 275.229,36.9763985 276.175,35.5523985 Z" id="Shape" fill="#FFFFFF"></path>
            <path d="M109.14,79.9617985 L109.14,107.953198 L113.716,107.953198 L113.716,98.3116985 L119.4,98.3116985 C120.604,98.3318985 121.8,98.1107985 122.918,97.6612985 C124.036,97.2117985 125.054,96.5428985 125.913,95.6935985 C126.771,94.8442985 127.453,93.8315985 127.918,92.7145985 C128.384,91.5975985 128.623,90.3984985 128.623,89.1873985 C128.661,87.9657985 128.447,86.7493985 127.994,85.6151985 C127.542,84.4808985 126.86,83.4534985 125.992,82.5976985 C125.134,81.7328985 124.109,81.0531985 122.981,80.6000985 C121.853,80.1468985 120.645,79.9296985 119.431,79.9617985 L109.14,79.9617985 Z M113.716,94.0333985 L113.716,84.2805985 L119.4,84.2805985 C120.686,84.2805985 121.919,84.7942985 122.828,85.7087985 C123.738,86.6233985 124.248,87.8636985 124.248,89.1569985 C124.248,90.4502985 123.738,91.6905985 122.828,92.6050985 C121.919,93.5196985 120.686,94.0333985 119.4,94.0333985 L113.716,94.0333985 Z M140.315,108.450198 C141.716,108.493198 143.111,108.254198 144.417,107.745198 C145.724,107.236198 146.916,106.468198 147.922,105.487198 C148.928,104.506198 149.728,103.332198 150.274,102.034198 C150.821,100.736198 151.102,99.3408985 151.102,97.9314985 C151.102,96.5220985 150.821,95.1269985 150.274,93.8290985 C149.728,92.5311985 148.928,91.3567985 147.922,90.3757985 C146.916,89.3947985 145.724,88.6269985 144.417,88.1180985 C143.111,87.6091985 141.716,87.3694985 140.315,87.4131985 C138.914,87.3694985 137.519,87.6091985 136.213,88.1180985 C134.906,88.6269985 133.714,89.3947985 132.708,90.3757985 C131.702,91.3567985 130.902,92.5311985 130.356,93.8290985 C129.809,95.1269985 129.528,96.5220985 129.528,97.9314985 C129.528,99.3408985 129.809,100.736198 130.356,102.034198 C130.902,103.332198 131.702,104.506198 132.708,105.487198 C133.714,106.468198 134.906,107.236198 136.213,107.745198 C137.519,108.254198 138.914,108.493198 140.315,108.450198 Z M135.9,102.448198 C134.754,101.227198 134.116,99.6108985 134.116,97.9314985 C134.116,96.2520985 134.754,94.6361985 135.9,93.4149985 C137.084,92.2628985 138.667,91.6187985 140.315,91.6187985 C141.963,91.6187985 143.546,92.2628985 144.73,93.4149985 C145.876,94.6361985 146.514,96.2520985 146.514,97.9314985 C146.514,99.6108985 145.876,101.227198 144.73,102.448198 C143.548,103.605198 141.964,104.252198 140.315,104.252198 C138.666,104.252198 137.082,103.605198 135.9,102.448198 Z M172.922,101.738198 L168.779,87.9403985 L164.687,87.9403985 L160.514,101.738198 L156.654,87.9403985 L152.128,87.9403985 L158.367,107.933198 L162.58,107.933198 L166.753,94.4591985 L170.886,107.933198 L175.099,107.933198 L181.348,87.9403985 L176.812,87.9403985 L172.922,101.738198 Z M202.938,99.7715985 C203.031,99.1777985 203.081,98.5780985 203.089,97.9770985 C203.15,95.2092985 202.138,92.5261985 200.267,90.4951985 C199.362,89.5004985 198.254,88.7138985 197.019,88.1890985 C195.784,87.6641985 194.451,87.4133985 193.111,87.4537985 C191.711,87.4054985 190.317,87.6509985 189.018,88.1746985 C187.718,88.6982985 186.541,89.4885985 185.561,90.4951985 C183.658,92.5299985 182.598,95.2185985 182.598,98.0125985 C182.598,100.806198 183.658,103.495198 185.561,105.530198 C186.602,106.527198 187.832,107.303198 189.178,107.811198 C190.523,108.320198 191.957,108.551198 193.393,108.490198 C197.253,108.490198 200.146,107.051198 202.102,104.131198 L198.564,102.103198 C197.987,102.919198 197.213,103.575198 196.316,104.009198 C195.419,104.444198 194.427,104.642198 193.433,104.587198 C190.127,104.587198 187.708,102.904198 187.073,99.8627985 L202.938,99.7715985 Z M187.073,96.2840985 C187.289,94.8532985 188.03,93.5554985 189.149,92.6456985 C190.268,91.7358985 191.685,91.2797985 193.121,91.3670985 C194.501,91.3344985 195.844,91.8199985 196.887,92.7290985 C197.931,93.6380985 198.6,94.9054985 198.765,96.2840985 L187.073,96.2840985 Z M211.163,87.9707985 L206.869,87.9707985 L206.869,107.963198 L211.163,107.963198 L211.163,97.8757985 C211.163,95.8480985 211.758,94.3577985 212.997,93.4757985 C214.231,92.5537985 215.762,92.1272985 217.291,92.2794985 L217.291,87.5956985 C214.267,87.5956985 212.252,88.8325985 211.163,91.3163985 L211.163,87.9707985 Z M238.76,99.8019985 C238.853,99.2081985 238.903,98.6084985 238.911,98.0074985 C238.972,95.2396985 237.96,92.5565985 236.089,90.5255985 C235.184,89.5308985 234.076,88.7442985 232.841,88.2194985 C231.606,87.6945985 230.273,87.4437985 228.933,87.4841985 C227.533,87.4358985 226.139,87.6813985 224.84,88.2050985 C223.54,88.7287985 222.363,89.5190985 221.383,90.5255985 C219.48,92.5603985 218.42,95.2490985 218.42,98.0429985 C218.42,100.837198 219.48,103.525198 221.383,105.560198 C222.424,106.557198 223.654,107.333198 225,107.842198 C226.345,108.350198 227.779,108.581198 229.215,108.521198 C233.075,108.521198 235.978,107.081198 237.924,104.161198 L234.386,102.134198 C233.809,102.950198 233.036,103.605198 232.138,104.040198 C231.241,104.474198 230.249,104.673198 229.255,104.617198 C225.949,104.617198 223.53,102.934198 222.895,99.8931985 L238.76,99.8019985 Z M222.895,96.2840985 C223.112,94.8532985 223.852,93.5554985 224.971,92.6456985 C226.09,91.7358985 227.507,91.2797985 228.943,91.3670985 C230.323,91.3344985 231.666,91.8199985 232.709,92.7290985 C233.753,93.6380985 234.422,94.9054985 234.587,96.2840985 L222.895,96.2840985 Z M258.314,90.8094985 C257.527,89.7083985 256.478,88.8232985 255.263,88.2352985 C254.048,87.6472985 252.706,87.3750985 251.359,87.4436985 C250.046,87.4251985 248.744,87.6866985 247.538,88.2108985 C246.332,88.7350985 245.251,89.5101985 244.364,90.4850985 C242.497,92.5220985 241.461,95.1912985 241.461,97.9618985 C241.461,100.732198 242.497,103.402198 244.364,105.439198 C245.25,106.415198 246.331,107.191198 247.537,107.715198 C248.743,108.240198 250.046,108.500198 251.359,108.480198 C252.71,108.551198 254.055,108.276198 255.272,107.683198 C256.488,107.089198 257.535,106.195198 258.314,105.084198 L258.314,107.963198 L262.608,107.963198 L262.608,79.9617985 L258.314,79.9617985 L258.314,90.8094985 Z M247.539,102.559198 C246.952,101.953198 246.491,101.234198 246.185,100.445198 C245.879,99.6561985 245.732,98.8135985 245.755,97.9669985 C245.728,97.1243985 245.872,96.2850985 246.179,95.5004985 C246.486,94.7159985 246.949,94.0027985 247.539,93.4048985 C248.743,92.2281985 250.356,91.5698985 252.035,91.5698985 C253.714,91.5698985 255.326,92.2281985 256.53,93.4048985 C257.121,94.0027985 257.584,94.7159985 257.891,95.5004985 C258.198,96.2850985 258.342,97.1243985 258.314,97.9669985 C258.337,98.8135985 258.191,99.6561985 257.885,100.445198 C257.578,101.234198 257.118,101.953198 256.53,102.559198 C255.317,103.717198 253.708,104.363198 252.035,104.363198 C250.362,104.363198 248.753,103.717198 247.539,102.559198 Z M288.552,87.4436985 C287.206,87.3750985 285.864,87.6472985 284.649,88.2352985 C283.434,88.8232985 282.385,89.7083985 281.598,90.8094985 L281.598,79.9617985 L277.304,79.9617985 L277.304,107.953198 L281.598,107.953198 L281.598,105.074198 C282.381,106.180198 283.429,107.071198 284.644,107.665198 C285.859,108.258198 287.203,108.535198 288.552,108.470198 C289.876,108.497198 291.19,108.240198 292.407,107.715198 C293.623,107.191198 294.715,106.411198 295.608,105.428198 C297.475,103.391198 298.512,100.722198 298.512,97.9517985 C298.512,95.1810985 297.475,92.5118985 295.608,90.4748985 C294.713,89.4942985 293.621,88.7160985 292.405,88.1917985 C291.189,87.6674985 289.875,87.4089985 288.552,87.4334985 L288.552,87.4436985 Z M283.392,102.549198 C282.801,101.945198 282.337,101.226198 282.029,100.437198 C281.72,99.6480985 281.574,98.8043985 281.598,97.9568985 C281.57,97.1132985 281.714,96.2729985 282.023,95.4881985 C282.332,94.7032985 282.798,93.9907985 283.392,93.3946985 C284.594,92.2186985 286.205,91.5606985 287.882,91.5606985 C289.559,91.5606985 291.17,92.2186985 292.372,93.3946985 C292.963,93.9926985 293.426,94.7058985 293.733,95.4903985 C294.04,96.2748985 294.184,97.1142985 294.157,97.9568985 C294.179,98.8033985 294.033,99.6459985 293.727,100.435198 C293.42,101.223198 292.96,101.942198 292.372,102.549198 C291.161,103.707198 289.553,104.352198 287.882,104.352198 C286.211,104.352198 284.604,103.707198 283.392,102.549198 Z M309.87,102.468198 L303.944,87.9606985 L299.247,87.9606985 L307.683,107.588198 L307.481,107.993198 C306.403,110.751198 304.901,112.049198 302.19,111.907198 L302.19,115.962198 C306.766,116.236198 309.981,113.762198 311.896,108.602198 L319.516,87.9606985 L314.94,87.9606985 L309.87,102.468198 Z" id="Shape" fill="#FFFFFF" fill-rule="nonzero"></path>
            <polygon id="Path" fill="#E60032" fill-rule="nonzero" points="336.893 89.3089985 348.232 89.3089985 348.232 77.5792985 356.094 77.5792985 356.094 107.973198 348.232 107.973198 348.232 95.4323985 336.893 95.4323985 336.893 107.973198 329.041 107.973198 329.041 77.5792985 336.893 77.5792985"></polygon>
            <path d="M381.524,77.5792985 L381.524,94.1042985 C381.524,94.9862985 381.524,95.8987985 381.625,96.8212985 C381.681,97.6915985 381.885,98.5455985 382.23,99.3456985 C382.567,100.100198 383.117,100.739198 383.812,101.181198 C384.735,101.695198 385.783,101.938198 386.836,101.880198 C387.89,101.943198 388.94,101.701198 389.86,101.181198 C390.558,100.727198 391.114,100.084198 391.463,99.3254985 C391.824,98.5298985 392.036,97.6740985 392.088,96.8010985 C392.158,95.8784985 392.188,94.9660985 392.188,94.0840985 L392.188,77.5792985 L400,77.5792985 L400,95.1890985 C400,99.9201985 398.925,103.374198 396.775,105.550198 C394.624,107.726198 391.318,108.815198 386.856,108.815198 C382.388,108.815198 379.075,107.726198 376.918,105.550198 C374.711,103.330198 373.673,99.9640985 373.673,95.1890985 L373.673,77.5792985 L381.524,77.5792985 Z" id="Path" fill="#E60032" fill-rule="nonzero"></path>
            <path d="M364.289,103.654198 L375.537,103.654198 L375.537,107.963198 L355.248,107.963198 L365.73,95.1992985 C366.738,93.9218985 367.625,92.8167985 368.331,91.8941985 C368.901,91.1438985 369.429,90.3619985 369.913,89.5522985 C370.578,88.5627985 370.961,87.4094985 371.022,86.2168985 C371.035,85.5526985 370.91,84.8928985 370.655,84.2800985 C370.4,83.6672985 370.02,83.1148985 369.54,82.6583985 C369.054,82.1879985 368.481,81.8186985 367.853,81.5715985 C367.225,81.3245985 366.555,81.2046985 365.881,81.2187985 C362.857,81.2187985 361.083,83.0436985 360.64,86.6730985 L356.094,86.6730985 C356.833,80.2725985 360.049,77.0723985 365.74,77.0723985 C368.306,77.0012985 370.797,77.9480985 372.675,79.7082985 C373.582,80.5298985 374.302,81.5381985 374.788,82.6647985 C375.273,83.7912985 375.511,85.0096985 375.487,86.2371985 C375.474,87.9456985 375.022,89.6218985 374.177,91.1034985 C373.601,92.1302985 372.951,93.1129985 372.231,94.0434985 C371.371,95.1789985 370.293,96.5306985 368.996,98.0987985 L364.289,103.654198 Z" id="Path" fill="#FFFFFF" fill-rule="nonzero"></path>
        </g>
    </g>
</svg>