<?xml version="1.0" encoding="UTF-8"?>
<svg viewBox="0 0 401 116" version="1.1" xmlns="http://www.w3.org/2000/svg" xmlns:xlink="http://www.w3.org/1999/xlink">
    <g id="Page-1" stroke="none" stroke-width="1" fill="none" fill-rule="evenodd">
        <g id="helloeroFullWhite" fill="#FFFFFF">
            <path d="M192.989,59.3503947 C196.748,60.8647947 200.774,61.5960947 204.823,61.5000947 L204.823,61.5406947 C208.863,61.5974947 212.874,60.8420947 216.62,59.3186947 C220.366,57.7952947 223.771,55.5346947 226.637,52.6694947 C229.502,49.8043947 231.77,46.3922947 233.306,42.6336947 C234.843,38.8750947 235.618,34.8455947 235.585,30.7816947 C235.668,26.7162947 234.914,22.6775947 233.37,18.9194947 C231.826,15.1613947 229.526,11.7651947 226.615,8.9442647 C220.777,3.2101347 212.942,-3.55271368e-15 204.783,-3.55271368e-15 C196.623,-3.55271368e-15 188.788,3.2101347 182.951,8.9442647 C180.052,11.7700947 177.766,15.1692947 176.237,18.9277947 C174.709,22.6861947 173.971,26.7222947 174.071,30.7816947 C173.979,34.8506947 174.719,38.8952947 176.247,42.6641947 C177.775,46.4330947 180.056,49.8456947 182.951,52.6900947 C185.814,55.5702947 189.229,57.8360947 192.989,59.3503947 Z M210.987,45.7209947 C209.027,46.5023947 206.929,46.8695947 204.823,46.7998947 C202.717,46.8681947 200.62,46.4998947 198.663,45.7178947 C196.705,44.9357947 194.928,43.7568947 193.442,42.2542947 C191.957,40.7517947 190.795,38.9577947 190.029,36.9840947 C189.263,35.0102947 188.908,32.8990947 188.988,30.7816947 C188.935,28.6556947 189.305,26.5403947 190.077,24.5604947 C190.849,22.5806947 192.008,20.7761947 193.484,19.2535947 C194.96,17.7308947 196.724,16.5207947 198.672,15.6945947 C200.621,14.8683947 202.714,14.4426947 204.828,14.4426947 C206.942,14.4426947 209.035,14.8683947 210.984,15.6945947 C212.932,16.5207947 214.696,17.7308947 216.172,19.2535947 C217.649,20.7761947 218.807,22.5806947 219.579,24.5604947 C220.351,26.5403947 220.721,28.6556947 220.668,30.7816947 C220.748,32.8998947 220.393,35.0120947 219.626,36.9864947 C218.859,38.9609947 217.697,40.7553947 216.21,42.2580947 C214.724,43.7607947 212.946,44.9395947 210.987,45.7209947 Z M31.5081,2.7196147 L31.5081,1.2394547 L52.1608,1.2394547 L52.1608,60.2430947 L37.2332,60.2430947 L37.2332,38.1116947 L20.7333,38.1116947 L20.7333,60.2430947 L5.72508,60.2430947 L5.72508,7.9204547 C5.72508,5.3453847 4.03175,2.7196147 0,2.7196147 L0,1.2394547 L20.7333,1.2394547 L20.7333,23.2897947 L37.2332,23.2897947 L37.2332,7.9204547 C37.2332,5.3453847 35.5399,2.7196147 31.5081,2.7196147 Z M124.178,1.2394547 L124.178,46.0801947 L137.392,46.0497947 L137.392,60.2430947 L109.17,60.2430947 L109.17,7.9103147 C109.17,5.3453747 107.476,2.7196147 103.445,2.7196147 L103.445,1.2394547 L124.178,1.2394547 Z M158.508,46.0801947 L158.508,1.2394547 L137.775,1.2394547 L137.775,2.7196147 C141.807,2.7196147 143.5,5.3453747 143.5,7.9103147 L143.5,60.2430947 L171.722,60.2430947 L171.722,46.0497947 L158.508,46.0801947 Z M76.8048,15.3110947 L76.8048,46.0801947 L99.5137,46.0497947 L99.5137,60.2430947 L61.8067,60.2430947 L61.8067,7.7176947 C61.716,5.2135847 60.0126,2.7196147 56.0817,2.7196147 L56.0817,1.2394547 L99.1004,1.2394547 L99.1004,15.3110947 L76.8048,15.3110947 Z M96.5604057,30.7412947 C96.5604057,32.4540947 96.0553,34.1283947 95.109,35.5523947 C94.1627,36.9763947 92.8178,38.0860947 91.2443,38.7410947 C89.6709,39.3960947 87.9396,39.5669947 86.2696,39.2320947 C84.5996,38.8971947 83.0658,38.0715947 81.8624,36.8597947 C80.659,35.6478947 79.84,34.1042947 79.509,32.4241947 C79.178,30.7439947 79.3499,29.0028947 80.0029,27.4209947 C80.656,25.8391947 81.7608,24.4876947 83.1777,23.5375947 C84.5946,22.5873947 86.2598,22.0813947 87.9627,22.0833888 C89.0926,22.0833888 90.2114,22.3073947 91.2552,22.7425947 C92.299,23.1777947 93.2472,23.8156947 94.0457,24.6197947 C94.8443,25.4238947 95.4773,26.3783947 95.9088,27.4287947 C96.3403,28.4791947 96.5617,29.6047947 96.5604057,30.7412947 Z M369.248,61.5000947 C365.199,61.5977947 361.172,60.8672947 357.413,59.3528947 C353.653,57.8384947 350.238,55.5716947 347.376,52.6900947 C344.478,49.8476947 342.193,46.4355947 340.664,42.6663947 C339.134,38.8971947 338.393,34.8516947 338.486,30.7816947 C338.387,26.7214947 339.127,22.6849947 340.657,18.9264947 C342.187,15.1679947 344.475,11.7691947 347.376,8.9442347 C353.212,3.2131347 361.046,0.0049216 369.202,0.0049216 C377.359,0.0049216 385.193,3.2131347 391.029,8.9442347 C393.945,11.7620947 396.247,15.1577947 397.792,18.9166947 C399.336,22.6754947 400.088,26.7155947 400,30.7816947 C400.033,34.8446947 399.258,38.8732947 397.722,42.6312947 C396.186,46.3891947 393.919,49.8007947 391.055,52.6658947 C388.19,55.5308947 384.786,57.7916947 381.041,59.3156947 C377.297,60.8396947 373.287,61.5960947 369.248,61.5405947 L369.248,61.5000947 Z M369.248,46.7998947 C371.353,46.8681947 373.45,46.4997947 375.408,45.7177947 C377.366,44.9357947 379.143,43.7567947 380.628,42.2542947 C382.114,40.7516947 383.276,38.9577947 384.042,36.9839947 C384.808,35.0102947 385.162,32.8989947 385.082,30.7816947 C385.136,28.6555947 384.766,26.5403947 383.993,24.5604947 C383.221,22.5805947 382.063,20.7761947 380.587,19.2534947 C379.111,17.7308947 377.347,16.5207947 375.398,15.6945947 C373.45,14.8682947 371.357,14.4426947 369.243,14.4426947 C367.128,14.4426947 365.035,14.8682947 363.087,15.6945947 C361.139,16.5207947 359.375,17.7308947 357.898,19.2534947 C356.422,20.7761947 355.264,22.5805947 354.492,24.5604947 C353.72,26.5403947 353.35,28.6555947 353.403,30.7816947 C353.323,32.8998947 353.677,35.0119947 354.444,36.9864947 C355.211,38.9608947 356.374,40.7553947 357.861,42.2580947 C359.347,43.7607947 361.125,44.9395947 363.084,45.7208947 C365.043,46.5022947 367.141,46.8695947 369.248,46.7998947 Z M332.118,31.3962947 C330.364,34.3466947 327.853,36.7678947 324.848,38.4056947 L336.953,60.2430947 L320.826,60.2430947 L310.556,41.1936947 L305.193,41.1936947 L305.193,60.2430947 L290.195,60.2430947 L290.195,7.9204447 C290.195,5.3453747 288.502,2.7196047 284.47,2.7196047 L284.47,1.2597247 L313.7,1.2597247 C316.458,1.1843047 319.203,1.6588047 321.777,2.6558347 C324.351,3.6528747 326.703,5.1527247 328.698,7.0688447 C330.702,8.9097747 332.287,11.1648947 333.343,13.6795947 C334.399,16.1941947 334.902,18.9087947 334.817,21.6372947 C334.804,25.0748947 333.872,28.4457947 332.118,31.3962947 Z M305.234,28.3587947 L313.539,28.3587947 L313.539,28.4196947 C317.218,28.5007947 319.819,25.7938947 319.819,21.8399947 C319.819,17.8861947 317.218,15.1792947 313.539,15.1792947 L305.234,15.1792947 L305.234,28.3587947 Z M257.871,46.0801947 L257.871,15.3110947 L280.207,15.3110947 L280.207,1.2394547 L237.148,1.2394547 L237.148,2.7196147 C241.079,2.7196147 242.782,5.2135847 242.873,7.7176947 L242.873,60.2430947 L280.58,60.2430947 L280.58,46.0497947 L257.871,46.0801947 Z M276.175,35.5523947 C277.121,34.1283947 277.626013,32.4540947 277.626013,30.7412947 C277.628,29.6047947 277.406,28.4791947 276.975,27.4287947 C276.543,26.3783947 275.91,25.4238947 275.112,24.6197947 C274.313,23.8156947 273.365,23.1777947 272.321,22.7425947 C271.277,22.3073947 270.159,22.0833888 269.029,22.0833888 C267.326,22.0813947 265.66,22.5873947 264.244,23.5375947 C262.827,24.4876947 261.722,25.8391947 261.069,27.4209947 C260.416,29.0028947 260.244,30.7439947 260.575,32.4241947 C260.906,34.1042947 261.725,35.6478947 262.928,36.8597947 C264.132,38.0715947 265.665,38.8971947 267.336,39.2320947 C269.006,39.5669947 270.737,39.3960947 272.31,38.7410947 C273.884,38.0860947 275.229,36.9763947 276.175,35.5523947 Z" id="Shape"></path>
            <path d="M109.14,79.9616947 L109.14,107.953195 L113.716,107.953195 L113.716,98.3116947 L119.4,98.3116947 C120.604,98.3318947 121.8,98.1107947 122.918,97.6612947 C124.036,97.2117947 125.054,96.5428947 125.913,95.6935947 C126.771,94.8442947 127.453,93.8315947 127.918,92.7145947 C128.384,91.5975947 128.623,90.3984947 128.623,89.1873947 C128.661,87.9656947 128.447,86.7493947 127.994,85.6151947 C127.542,84.4808947 126.86,83.4534947 125.992,82.5975947 C125.134,81.7328947 124.109,81.0531947 122.981,80.5999947 C121.853,80.1467947 120.645,79.9296947 119.431,79.9616947 L109.14,79.9616947 Z M113.716,94.0333947 L113.716,84.2805947 L119.4,84.2805947 C120.686,84.2805947 121.919,84.7942947 122.828,85.7087947 C123.738,86.6232947 124.248,87.8636947 124.248,89.1569947 C124.248,90.4502947 123.738,91.6905947 122.828,92.6050947 C121.919,93.5195947 120.686,94.0333947 119.4,94.0333947 L113.716,94.0333947 Z M140.315,108.450195 C141.716,108.493195 143.111,108.254195 144.417,107.745195 C145.724,107.236195 146.916,106.468195 147.922,105.487195 C148.928,104.506195 149.728,103.332195 150.274,102.034195 C150.821,100.736195 151.102,99.3408947 151.102,97.9314947 C151.102,96.5220947 150.821,95.1269947 150.274,93.8290947 C149.728,92.5310947 148.928,91.3567947 147.922,90.3757947 C146.916,89.3947947 145.724,88.6269947 144.417,88.1180947 C143.111,87.6091947 141.716,87.3694947 140.315,87.4131947 C138.914,87.3694947 137.519,87.6091947 136.213,88.1180947 C134.906,88.6269947 133.714,89.3947947 132.708,90.3757947 C131.702,91.3567947 130.902,92.5310947 130.356,93.8290947 C129.809,95.1269947 129.528,96.5220947 129.528,97.9314947 C129.528,99.3408947 129.809,100.736195 130.356,102.034195 C130.902,103.332195 131.702,104.506195 132.708,105.487195 C133.714,106.468195 134.906,107.236195 136.213,107.745195 C137.519,108.254195 138.914,108.493195 140.315,108.450195 Z M135.9,102.448195 C134.754,101.227195 134.116,99.6108947 134.116,97.9314947 C134.116,96.2520947 134.754,94.6361947 135.9,93.4149947 C137.084,92.2628947 138.667,91.6187947 140.315,91.6187947 C141.963,91.6187947 143.546,92.2628947 144.73,93.4149947 C145.876,94.6361947 146.514,96.2520947 146.514,97.9314947 C146.514,99.6108947 145.876,101.227195 144.73,102.448195 C143.548,103.605195 141.964,104.252195 140.315,104.252195 C138.666,104.252195 137.082,103.605195 135.9,102.448195 Z M172.922,101.738195 L168.779,87.9403947 L164.687,87.9403947 L160.514,101.738195 L156.654,87.9403947 L152.128,87.9403947 L158.367,107.933195 L162.58,107.933195 L166.753,94.4591947 L170.886,107.933195 L175.099,107.933195 L181.348,87.9403947 L176.812,87.9403947 L172.922,101.738195 Z M202.938,99.7715947 C203.031,99.1777947 203.081,98.5780947 203.089,97.9770947 C203.15,95.2091947 202.138,92.5261947 200.267,90.4951947 C199.362,89.5004947 198.254,88.7138947 197.019,88.1889947 C195.784,87.6641947 194.451,87.4133947 193.111,87.4537947 C191.711,87.4054947 190.317,87.6509947 189.018,88.1746947 C187.718,88.6982947 186.541,89.4885947 185.561,90.4951947 C183.658,92.5298947 182.598,95.2185947 182.598,98.0125947 C182.598,100.806195 183.658,103.495195 185.561,105.530195 C186.602,106.527195 187.832,107.303195 189.178,107.811195 C190.523,108.320195 191.957,108.551195 193.393,108.490195 C197.253,108.490195 200.146,107.051195 202.102,104.131195 L198.564,102.103195 C197.987,102.919195 197.213,103.575195 196.316,104.009195 C195.419,104.443195 194.427,104.642195 193.433,104.587195 C190.127,104.587195 187.708,102.904195 187.073,99.8627947 L202.938,99.7715947 Z M187.073,96.2840947 C187.289,94.8531947 188.03,93.5554947 189.149,92.6456947 C190.268,91.7358947 191.685,91.2797947 193.121,91.3670947 C194.501,91.3344947 195.844,91.8199947 196.887,92.7289947 C197.931,93.6380947 198.6,94.9054947 198.765,96.2840947 L187.073,96.2840947 Z M211.163,87.9707947 L206.869,87.9707947 L206.869,107.963195 L211.163,107.963195 L211.163,97.8756947 C211.163,95.8480947 211.758,94.3577947 212.997,93.4757947 C214.231,92.5537947 215.762,92.1272947 217.291,92.2794947 L217.291,87.5956947 C214.267,87.5956947 212.252,88.8325947 211.163,91.3163947 L211.163,87.9707947 Z M238.76,99.8019947 C238.853,99.2081947 238.903,98.6084947 238.911,98.0074947 C238.972,95.2396947 237.96,92.5565947 236.089,90.5255947 C235.184,89.5308947 234.076,88.7442947 232.841,88.2194947 C231.606,87.6945947 230.273,87.4437947 228.933,87.4841947 C227.533,87.4358947 226.139,87.6813947 224.84,88.2050947 C223.54,88.7286947 222.363,89.5189947 221.383,90.5255947 C219.48,92.5603947 218.42,95.2489947 218.42,98.0429947 C218.42,100.837195 219.48,103.525195 221.383,105.560195 C222.424,106.557195 223.654,107.333195 225,107.842195 C226.345,108.350195 227.779,108.581195 229.215,108.521195 C233.075,108.521195 235.978,107.081195 237.924,104.161195 L234.386,102.134195 C233.809,102.950195 233.036,103.605195 232.138,104.040195 C231.241,104.474195 230.249,104.673195 229.255,104.617195 C225.949,104.617195 223.53,102.934195 222.895,99.8931947 L238.76,99.8019947 Z M222.895,96.2840947 C223.112,94.8531947 223.852,93.5554947 224.971,92.6456947 C226.09,91.7358947 227.507,91.2797947 228.943,91.3670947 C230.323,91.3344947 231.666,91.8199947 232.709,92.7289947 C233.753,93.6380947 234.422,94.9054947 234.587,96.2840947 L222.895,96.2840947 Z M258.314,90.8094947 C257.527,89.7082947 256.478,88.8232947 255.263,88.2352947 C254.048,87.6472947 252.706,87.3750947 251.359,87.4435947 C250.046,87.4251947 248.744,87.6866947 247.538,88.2108947 C246.332,88.7350947 245.251,89.5101947 244.364,90.4850947 C242.497,92.5220947 241.461,95.1911947 241.461,97.9618947 C241.461,100.732195 242.497,103.402195 244.364,105.439195 C245.25,106.415195 246.331,107.191195 247.537,107.715195 C248.743,108.240195 250.046,108.500195 251.359,108.480195 C252.71,108.551195 254.055,108.276195 255.272,107.683195 C256.488,107.089195 257.535,106.195195 258.314,105.084195 L258.314,107.963195 L262.608,107.963195 L262.608,79.9616947 L258.314,79.9616947 L258.314,90.8094947 Z M247.539,102.559195 C246.952,101.953195 246.491,101.234195 246.185,100.445195 C245.879,99.6561947 245.732,98.8135947 245.755,97.9669947 C245.728,97.1243947 245.872,96.2849947 246.179,95.5004947 C246.486,94.7159947 246.949,94.0027947 247.539,93.4047947 C248.743,92.2280947 250.356,91.5698947 252.035,91.5698947 C253.714,91.5698947 255.326,92.2280947 256.53,93.4047947 C257.121,94.0027947 257.584,94.7159947 257.891,95.5004947 C258.198,96.2849947 258.342,97.1243947 258.314,97.9669947 C258.337,98.8135947 258.191,99.6561947 257.885,100.445195 C257.578,101.234195 257.118,101.953195 256.53,102.559195 C255.317,103.717195 253.708,104.363195 252.035,104.363195 C250.362,104.363195 248.753,103.717195 247.539,102.559195 Z M288.552,87.4435947 C287.206,87.3750947 285.864,87.6472947 284.649,88.2352947 C283.434,88.8232947 282.385,89.7082947 281.598,90.8094947 L281.598,79.9616947 L277.304,79.9616947 L277.304,107.953195 L281.598,107.953195 L281.598,105.074195 C282.381,106.180195 283.429,107.071195 284.644,107.665195 C285.859,108.258195 287.203,108.535195 288.552,108.470195 C289.876,108.497195 291.19,108.240195 292.407,107.715195 C293.623,107.191195 294.715,106.411195 295.608,105.428195 C297.475,103.391195 298.512,100.722195 298.512,97.9517947 C298.512,95.1810947 297.475,92.5118947 295.608,90.4748947 C294.713,89.4942947 293.621,88.7160947 292.405,88.1917947 C291.189,87.6674947 289.875,87.4089947 288.552,87.4334947 L288.552,87.4435947 Z M283.392,102.549195 C282.801,101.945195 282.337,101.226195 282.029,100.437195 C281.72,99.6480947 281.574,98.8043947 281.598,97.9567947 C281.57,97.1132947 281.714,96.2729947 282.023,95.4881947 C282.332,94.7032947 282.798,93.9906947 283.392,93.3946947 C284.594,92.2185947 286.205,91.5606947 287.882,91.5606947 C289.559,91.5606947 291.17,92.2185947 292.372,93.3946947 C292.963,93.9926947 293.426,94.7057947 293.733,95.4903947 C294.04,96.2748947 294.184,97.1142947 294.157,97.9567947 C294.179,98.8033947 294.033,99.6459947 293.727,100.435195 C293.42,101.223195 292.96,101.942195 292.372,102.549195 C291.161,103.707195 289.553,104.352195 287.882,104.352195 C286.211,104.352195 284.604,103.707195 283.392,102.549195 Z M309.87,102.468195 L303.944,87.9606947 L299.247,87.9606947 L307.683,107.588195 L307.481,107.993195 C306.403,110.751195 304.901,112.049195 302.19,111.907195 L302.19,115.962195 C306.766,116.236195 309.981,113.762195 311.896,108.602195 L319.516,87.9606947 L314.94,87.9606947 L309.87,102.468195 Z" id="Shape" fill-rule="nonzero"></path>
            <polygon id="Path" fill-rule="nonzero" points="336.893 89.3089947 348.232 89.3089947 348.232 77.5792947 356.094 77.5792947 356.094 107.973195 348.232 107.973195 348.232 95.4323947 336.893 95.4323947 336.893 107.973195 329.041 107.973195 329.041 77.5792947 336.893 77.5792947"></polygon>
            <path d="M381.524,77.5792947 L381.524,94.1042947 C381.524,94.9862947 381.524,95.8987947 381.625,96.8212947 C381.681,97.6915947 381.885,98.5455947 382.23,99.3456947 C382.567,100.100195 383.117,100.739195 383.812,101.181195 C384.735,101.695195 385.783,101.938195 386.836,101.880195 C387.89,101.943195 388.94,101.701195 389.86,101.181195 C390.558,100.727195 391.114,100.084195 391.463,99.3254947 C391.824,98.5298947 392.036,97.6740947 392.088,96.8010947 C392.158,95.8784947 392.188,94.9660947 392.188,94.0840947 L392.188,77.5792947 L400,77.5792947 L400,95.1890947 C400,99.9201947 398.925,103.374195 396.775,105.550195 C394.624,107.726195 391.318,108.815195 386.856,108.815195 C382.388,108.815195 379.075,107.726195 376.918,105.550195 C374.711,103.330195 373.673,99.9640947 373.673,95.1890947 L373.673,77.5792947 L381.524,77.5792947 Z" id="Path" fill-rule="nonzero"></path>
            <path d="M364.289,103.654195 L375.537,103.654195 L375.537,107.963195 L355.248,107.963195 L365.73,95.1992947 C366.738,93.9218947 367.625,92.8167947 368.331,91.8941947 C368.901,91.1438947 369.429,90.3619947 369.913,89.5522947 C370.578,88.5627947 370.961,87.4094947 371.022,86.2168947 C371.035,85.5526947 370.91,84.8928947 370.655,84.2800947 C370.4,83.6672947 370.02,83.1148947 369.54,82.6583947 C369.054,82.1879947 368.481,81.8186947 367.853,81.5715947 C367.225,81.3245947 366.555,81.2046947 365.881,81.2187947 C362.857,81.2187947 361.083,83.0436947 360.64,86.6730947 L356.094,86.6730947 C356.833,80.2725947 360.049,77.0723947 365.74,77.0723947 C368.306,77.0012947 370.797,77.9480947 372.675,79.7082947 C373.582,80.5298947 374.302,81.5381947 374.788,82.6647947 C375.273,83.7912947 375.511,85.0096947 375.487,86.2371947 C375.474,87.9456947 375.022,89.6218947 374.177,91.1034947 C373.601,92.1302947 372.951,93.1129947 372.231,94.0434947 C371.371,95.1789947 370.293,96.5306947 368.996,98.0987947 L364.289,103.654195 Z" id="Path" fill-rule="nonzero"></path>
        </g>
    </g>
</svg>