<?xml version="1.0" encoding="UTF-8"?>
<svg viewBox="0 0 401 116" version="1.1" xmlns="http://www.w3.org/2000/svg" xmlns:xlink="http://www.w3.org/1999/xlink">
    <g id="Page-1" stroke="none" stroke-width="1" fill="none" fill-rule="evenodd">
        <g id="helloeroMonochromeBlack">
            <path d="M192.989,59.3504909 C196.748,60.8647909 200.774,61.5960909 204.823,61.5000909 L204.823,61.5406909 C208.863,61.5974909 212.874,60.8420909 216.62,59.3186909 C220.366,57.7952909 223.771,55.5346909 226.637,52.6694909 C229.502,49.8043909 231.77,46.3922909 233.306,42.6336909 C234.843,38.8750909 235.618,34.8455909 235.585,30.7816909 C235.668,26.7162909 234.914,22.6775909 233.37,18.9194909 C231.826,15.1613909 229.526,11.7651909 226.615,8.9442609 C220.777,3.2101309 212.942,0 204.783,0 C196.623,0 188.788,3.2101309 182.951,8.9442609 C180.052,11.7700909 177.766,15.1692909 176.237,18.9277909 C174.709,22.6861909 173.971,26.7222909 174.071,30.7816909 C173.979,34.8506909 174.719,38.8952909 176.247,42.6641909 C177.775,46.4330909 180.056,49.8456909 182.951,52.6900909 C185.814,55.5702909 189.229,57.8360909 192.989,59.3504909 Z M210.987,45.7209909 C209.027,46.5023909 206.929,46.8695909 204.823,46.7998909 C202.717,46.8681909 200.62,46.4998909 198.663,45.7178909 C196.705,44.9358909 194.928,43.7568909 193.442,42.2542909 C191.957,40.7517909 190.795,38.9577909 190.029,36.9840909 C189.263,35.0102909 188.908,32.8990909 188.988,30.7816909 C188.935,28.6556909 189.305,26.5403909 190.077,24.5604909 C190.849,22.5806909 192.008,20.7761909 193.484,19.2535909 C194.96,17.7308909 196.724,16.5207909 198.672,15.6945909 C200.621,14.8683909 202.714,14.4426909 204.828,14.4426909 C206.942,14.4426909 209.035,14.8683909 210.984,15.6945909 C212.932,16.5207909 214.696,17.7308909 216.172,19.2535909 C217.649,20.7761909 218.807,22.5806909 219.579,24.5604909 C220.351,26.5403909 220.721,28.6556909 220.668,30.7816909 C220.748,32.8999909 220.393,35.0120909 219.626,36.9864909 C218.859,38.9609909 217.697,40.7553909 216.21,42.2580909 C214.724,43.7607909 212.946,44.9395909 210.987,45.7209909 Z M31.5081,2.7196109 L31.5081,1.2394509 L52.1608,1.2394509 L52.1608,60.2430909 L37.2332,60.2430909 L37.2332,38.1116909 L20.7333,38.1116909 L20.7333,60.2430909 L5.72508,60.2430909 L5.72508,7.9204509 C5.72508,5.3453809 4.03175,2.7196109 0,2.7196109 L0,1.2394509 L20.7333,1.2394509 L20.7333,23.2897909 L37.2332,23.2897909 L37.2332,7.9204509 C37.2332,5.3453809 35.5399,2.7196109 31.5081,2.7196109 Z M124.178,1.2394509 L124.178,46.0801909 L137.392,46.0497909 L137.392,60.2430909 L109.17,60.2430909 L109.17,7.9103109 C109.17,5.3453809 107.476,2.7196109 103.445,2.7196109 L103.445,1.2394509 L124.178,1.2394509 Z M158.508,46.0801909 L158.508,1.2394509 L137.775,1.2394509 L137.775,2.7196109 C141.807,2.7196109 143.5,5.3453809 143.5,7.9103109 L143.5,60.2430909 L171.722,60.2430909 L171.722,46.0497909 L158.508,46.0801909 Z M76.8048,15.3110909 L76.8048,46.0801909 L99.5137,46.0497909 L99.5137,60.2430909 L61.8067,60.2430909 L61.8067,7.7176909 C61.716,5.2135809 60.0126,2.7196109 56.0817,2.7196109 L56.0817,1.2394509 L99.1004,1.2394509 L99.1004,15.3110909 L76.8048,15.3110909 Z M96.5604057,30.7412909 C96.5604057,32.4540909 96.0553,34.1283909 95.109,35.5523909 C94.1627,36.9763909 92.8178,38.0860909 91.2443,38.7410909 C89.6709,39.3960909 87.9396,39.5669909 86.2696,39.2320909 C84.5996,38.8971909 83.0658,38.0715909 81.8624,36.8597909 C80.659,35.6478909 79.84,34.1042909 79.509,32.4241909 C79.178,30.7439909 79.3499,29.0028909 80.0029,27.4209909 C80.656,25.8391909 81.7608,24.4876909 83.1777,23.5375909 C84.5946,22.5873909 86.2598,22.0813909 87.9627,22.083385 C89.0926,22.083385 90.2114,22.3073909 91.2552,22.7425909 C92.299,23.1777909 93.2472,23.8156909 94.0457,24.6197909 C94.8443,25.4238909 95.4773,26.3784909 95.9088,27.4287909 C96.3403,28.4791909 96.5617,29.6047909 96.5604057,30.7412909 Z M369.248,61.5000909 C365.199,61.5977909 361.172,60.8672909 357.413,59.3528909 C353.653,57.8384909 350.238,55.5716909 347.376,52.6900909 C344.478,49.8476909 342.193,46.4355909 340.664,42.6663909 C339.134,38.8971909 338.393,34.8516909 338.486,30.7816909 C338.387,26.7214909 339.127,22.6849909 340.657,18.9264909 C342.187,15.1679909 344.475,11.7691909 347.376,8.9442309 C353.212,3.2131409 361.046,0.0049216 369.202,0.0049216 C377.359,0.0049216 385.193,3.2131409 391.029,8.9442309 C393.945,11.7621909 396.247,15.1578909 397.792,18.9166909 C399.336,22.6754909 400.088,26.7155909 400,30.7816909 C400.033,34.8446909 399.258,38.8733909 397.722,42.6312909 C396.186,46.3891909 393.919,49.8007909 391.055,52.6658909 C388.19,55.5308909 384.786,57.7916909 381.041,59.3156909 C377.297,60.8396909 373.287,61.5960909 369.248,61.5405909 L369.248,61.5000909 Z M369.248,46.7998909 C371.353,46.8681909 373.45,46.4998909 375.408,45.7177909 C377.366,44.9357909 379.143,43.7567909 380.628,42.2542909 C382.114,40.7516909 383.276,38.9577909 384.042,36.9839909 C384.808,35.0102909 385.162,32.8989909 385.082,30.7816909 C385.136,28.6555909 384.766,26.5403909 383.993,24.5604909 C383.221,22.5805909 382.063,20.7761909 380.587,19.2535909 C379.111,17.7308909 377.347,16.5207909 375.398,15.6945909 C373.45,14.8682909 371.357,14.4426909 369.243,14.4426909 C367.128,14.4426909 365.035,14.8682909 363.087,15.6945909 C361.139,16.5207909 359.375,17.7308909 357.898,19.2535909 C356.422,20.7761909 355.264,22.5805909 354.492,24.5604909 C353.72,26.5403909 353.35,28.6555909 353.403,30.7816909 C353.323,32.8998909 353.677,35.0120909 354.444,36.9864909 C355.211,38.9608909 356.374,40.7553909 357.861,42.2580909 C359.347,43.7607909 361.125,44.9395909 363.084,45.7208909 C365.043,46.5022909 367.141,46.8695909 369.248,46.7998909 Z M332.118,31.3962909 C330.364,34.3466909 327.853,36.7678909 324.848,38.4056909 L336.953,60.2430909 L320.826,60.2430909 L310.556,41.1936909 L305.193,41.1936909 L305.193,60.2430909 L290.195,60.2430909 L290.195,7.9204409 C290.195,5.3453709 288.502,2.7196009 284.47,2.7196009 L284.47,1.2597209 L313.7,1.2597209 C316.458,1.1843009 319.203,1.6588009 321.777,2.6558409 C324.351,3.6528809 326.703,5.1527209 328.698,7.0688409 C330.702,8.9097809 332.287,11.1648909 333.343,13.6795909 C334.399,16.1941909 334.902,18.9087909 334.817,21.6372909 C334.804,25.0748909 333.872,28.4457909 332.118,31.3962909 Z M305.234,28.3587909 L313.539,28.3587909 L313.539,28.4196909 C317.218,28.5007909 319.819,25.7938909 319.819,21.8399909 C319.819,17.8861909 317.218,15.1792909 313.539,15.1792909 L305.234,15.1792909 L305.234,28.3587909 Z M257.871,46.0801909 L257.871,15.3110909 L280.207,15.3110909 L280.207,1.2394509 L237.148,1.2394509 L237.148,2.7196109 C241.079,2.7196109 242.782,5.2135809 242.873,7.7176909 L242.873,60.2430909 L280.58,60.2430909 L280.58,46.0497909 L257.871,46.0801909 Z M276.175,35.5523909 C277.121,34.1283909 277.626013,32.4540909 277.626013,30.7412909 C277.628,29.6047909 277.406,28.4791909 276.975,27.4287909 C276.543,26.3784909 275.91,25.4238909 275.112,24.6197909 C274.313,23.8156909 273.365,23.1777909 272.321,22.7425909 C271.277,22.3073909 270.159,22.083385 269.029,22.083385 C267.326,22.0813909 265.66,22.5873909 264.244,23.5375909 C262.827,24.4876909 261.722,25.8391909 261.069,27.4209909 C260.416,29.0028909 260.244,30.7439909 260.575,32.4241909 C260.906,34.1042909 261.725,35.6478909 262.928,36.8597909 C264.132,38.0715909 265.665,38.8971909 267.336,39.2320909 C269.006,39.5669909 270.737,39.3960909 272.31,38.7410909 C273.884,38.0860909 275.229,36.9763909 276.175,35.5523909 Z" id="Shape" fill="#000000"></path>
            <path d="M109.14,79.9616909 L109.14,107.953191 L113.716,107.953191 L113.716,98.3116909 L119.4,98.3116909 C120.604,98.3318909 121.8,98.1107909 122.918,97.6612909 C124.036,97.2117909 125.054,96.5428909 125.913,95.6935909 C126.771,94.8442909 127.453,93.8315909 127.918,92.7145909 C128.384,91.5975909 128.623,90.3984909 128.623,89.1873909 C128.661,87.9657909 128.447,86.7493909 127.994,85.6151909 C127.542,84.4808909 126.86,83.4534909 125.992,82.5975909 C125.134,81.7328909 124.109,81.0531909 122.981,80.5999909 C121.853,80.1467909 120.645,79.9296909 119.431,79.9616909 L109.14,79.9616909 Z M113.716,94.0333909 L113.716,84.2805909 L119.4,84.2805909 C120.686,84.2805909 121.919,84.7942909 122.828,85.7087909 C123.738,86.6232909 124.248,87.8636909 124.248,89.1569909 C124.248,90.4502909 123.738,91.6905909 122.828,92.6050909 C121.919,93.5195909 120.686,94.0333909 119.4,94.0333909 L113.716,94.0333909 Z M140.315,108.450191 C141.716,108.493191 143.111,108.254191 144.417,107.745191 C145.724,107.236191 146.916,106.468191 147.922,105.487191 C148.928,104.506191 149.728,103.332191 150.274,102.034191 C150.821,100.736191 151.102,99.3408909 151.102,97.9314909 C151.102,96.5220909 150.821,95.1269909 150.274,93.8290909 C149.728,92.5311909 148.928,91.3567909 147.922,90.3757909 C146.916,89.3947909 145.724,88.6269909 144.417,88.1180909 C143.111,87.6091909 141.716,87.3694909 140.315,87.4131909 C138.914,87.3694909 137.519,87.6091909 136.213,88.1180909 C134.906,88.6269909 133.714,89.3947909 132.708,90.3757909 C131.702,91.3567909 130.902,92.5311909 130.356,93.8290909 C129.809,95.1269909 129.528,96.5220909 129.528,97.9314909 C129.528,99.3408909 129.809,100.736191 130.356,102.034191 C130.902,103.332191 131.702,104.506191 132.708,105.487191 C133.714,106.468191 134.906,107.236191 136.213,107.745191 C137.519,108.254191 138.914,108.493191 140.315,108.450191 Z M135.9,102.448191 C134.754,101.227191 134.116,99.6108909 134.116,97.9314909 C134.116,96.2520909 134.754,94.6361909 135.9,93.4149909 C137.084,92.2628909 138.667,91.6187909 140.315,91.6187909 C141.963,91.6187909 143.546,92.2628909 144.73,93.4149909 C145.876,94.6361909 146.514,96.2520909 146.514,97.9314909 C146.514,99.6108909 145.876,101.227191 144.73,102.448191 C143.548,103.605191 141.964,104.252191 140.315,104.252191 C138.666,104.252191 137.082,103.605191 135.9,102.448191 Z M172.922,101.738191 L168.779,87.9403909 L164.687,87.9403909 L160.514,101.738191 L156.654,87.9403909 L152.128,87.9403909 L158.367,107.933191 L162.58,107.933191 L166.753,94.4591909 L170.886,107.933191 L175.099,107.933191 L181.348,87.9403909 L176.812,87.9403909 L172.922,101.738191 Z M202.938,99.7715909 C203.031,99.1777909 203.081,98.5780909 203.089,97.9770909 C203.15,95.2091909 202.138,92.5261909 200.267,90.4951909 C199.362,89.5004909 198.254,88.7138909 197.019,88.1889909 C195.784,87.6641909 194.451,87.4133909 193.111,87.4537909 C191.711,87.4054909 190.317,87.6509909 189.018,88.1746909 C187.718,88.6982909 186.541,89.4885909 185.561,90.4951909 C183.658,92.5298909 182.598,95.2185909 182.598,98.0125909 C182.598,100.806191 183.658,103.495191 185.561,105.530191 C186.602,106.527191 187.832,107.303191 189.178,107.811191 C190.523,108.320191 191.957,108.551191 193.393,108.490191 C197.253,108.490191 200.146,107.051191 202.102,104.131191 L198.564,102.103191 C197.987,102.919191 197.213,103.575191 196.316,104.009191 C195.419,104.443191 194.427,104.642191 193.433,104.587191 C190.127,104.587191 187.708,102.904191 187.073,99.8627909 L202.938,99.7715909 Z M187.073,96.2840909 C187.289,94.8531909 188.03,93.5554909 189.149,92.6456909 C190.268,91.7358909 191.685,91.2797909 193.121,91.3670909 C194.501,91.3344909 195.844,91.8199909 196.887,92.7290909 C197.931,93.6380909 198.6,94.9054909 198.765,96.2840909 L187.073,96.2840909 Z M211.163,87.9707909 L206.869,87.9707909 L206.869,107.963191 L211.163,107.963191 L211.163,97.8756909 C211.163,95.8480909 211.758,94.3577909 212.997,93.4757909 C214.231,92.5537909 215.762,92.1272909 217.291,92.2794909 L217.291,87.5956909 C214.267,87.5956909 212.252,88.8325909 211.163,91.3163909 L211.163,87.9707909 Z M238.76,99.8019909 C238.853,99.2081909 238.903,98.6084909 238.911,98.0074909 C238.972,95.2396909 237.96,92.5565909 236.089,90.5255909 C235.184,89.5308909 234.076,88.7442909 232.841,88.2194909 C231.606,87.6945909 230.273,87.4437909 228.933,87.4841909 C227.533,87.4358909 226.139,87.6813909 224.84,88.2050909 C223.54,88.7286909 222.363,89.5189909 221.383,90.5255909 C219.48,92.5603909 218.42,95.2489909 218.42,98.0429909 C218.42,100.837191 219.48,103.525191 221.383,105.560191 C222.424,106.557191 223.654,107.333191 225,107.842191 C226.345,108.350191 227.779,108.581191 229.215,108.521191 C233.075,108.521191 235.978,107.081191 237.924,104.161191 L234.386,102.134191 C233.809,102.950191 233.036,103.605191 232.138,104.040191 C231.241,104.474191 230.249,104.673191 229.255,104.617191 C225.949,104.617191 223.53,102.934191 222.895,99.8931909 L238.76,99.8019909 Z M222.895,96.2840909 C223.112,94.8531909 223.852,93.5554909 224.971,92.6456909 C226.09,91.7358909 227.507,91.2797909 228.943,91.3670909 C230.323,91.3344909 231.666,91.8199909 232.709,92.7290909 C233.753,93.6380909 234.422,94.9054909 234.587,96.2840909 L222.895,96.2840909 Z M258.314,90.8094909 C257.527,89.7083909 256.478,88.8232909 255.263,88.2352909 C254.048,87.6472909 252.706,87.3750909 251.359,87.4435909 C250.046,87.4251909 248.744,87.6866909 247.538,88.2108909 C246.332,88.7350909 245.251,89.5101909 244.364,90.4850909 C242.497,92.5220909 241.461,95.1912909 241.461,97.9618909 C241.461,100.732191 242.497,103.402191 244.364,105.439191 C245.25,106.415191 246.331,107.191191 247.537,107.715191 C248.743,108.240191 250.046,108.500191 251.359,108.480191 C252.71,108.551191 254.055,108.276191 255.272,107.683191 C256.488,107.089191 257.535,106.195191 258.314,105.084191 L258.314,107.963191 L262.608,107.963191 L262.608,79.9616909 L258.314,79.9616909 L258.314,90.8094909 Z M247.539,102.559191 C246.952,101.953191 246.491,101.234191 246.185,100.445191 C245.879,99.6561909 245.732,98.8135909 245.755,97.9669909 C245.728,97.1243909 245.872,96.2849909 246.179,95.5004909 C246.486,94.7159909 246.949,94.0027909 247.539,93.4048909 C248.743,92.2280909 250.356,91.5698909 252.035,91.5698909 C253.714,91.5698909 255.326,92.2280909 256.53,93.4048909 C257.121,94.0027909 257.584,94.7159909 257.891,95.5004909 C258.198,96.2849909 258.342,97.1243909 258.314,97.9669909 C258.337,98.8135909 258.191,99.6561909 257.885,100.445191 C257.578,101.234191 257.118,101.953191 256.53,102.559191 C255.317,103.717191 253.708,104.363191 252.035,104.363191 C250.362,104.363191 248.753,103.717191 247.539,102.559191 Z M288.552,87.4435909 C287.206,87.3750909 285.864,87.6472909 284.649,88.2352909 C283.434,88.8232909 282.385,89.7083909 281.598,90.8094909 L281.598,79.9616909 L277.304,79.9616909 L277.304,107.953191 L281.598,107.953191 L281.598,105.074191 C282.381,106.180191 283.429,107.071191 284.644,107.665191 C285.859,108.258191 287.203,108.535191 288.552,108.470191 C289.876,108.497191 291.19,108.240191 292.407,107.715191 C293.623,107.191191 294.715,106.411191 295.608,105.428191 C297.475,103.391191 298.512,100.722191 298.512,97.9517909 C298.512,95.1810909 297.475,92.5118909 295.608,90.4748909 C294.713,89.4942909 293.621,88.7160909 292.405,88.1917909 C291.189,87.6674909 289.875,87.4089909 288.552,87.4334909 L288.552,87.4435909 Z M283.392,102.549191 C282.801,101.945191 282.337,101.226191 282.029,100.437191 C281.72,99.6480909 281.574,98.8043909 281.598,97.9568909 C281.57,97.1132909 281.714,96.2729909 282.023,95.4881909 C282.332,94.7032909 282.798,93.9906909 283.392,93.3946909 C284.594,92.2186909 286.205,91.5606909 287.882,91.5606909 C289.559,91.5606909 291.17,92.2186909 292.372,93.3946909 C292.963,93.9926909 293.426,94.7057909 293.733,95.4903909 C294.04,96.2748909 294.184,97.1142909 294.157,97.9568909 C294.179,98.8033909 294.033,99.6459909 293.727,100.435191 C293.42,101.223191 292.96,101.942191 292.372,102.549191 C291.161,103.707191 289.553,104.352191 287.882,104.352191 C286.211,104.352191 284.604,103.707191 283.392,102.549191 Z M309.87,102.468191 L303.944,87.9606909 L299.247,87.9606909 L307.683,107.588191 L307.481,107.993191 C306.403,110.751191 304.901,112.049191 302.19,111.907191 L302.19,115.962191 C306.766,116.236191 309.981,113.762191 311.896,108.602191 L319.516,87.9606909 L314.94,87.9606909 L309.87,102.468191 Z" id="Shape" fill="#000000" fill-rule="nonzero"></path>
            <polygon id="Path" fill="#999999" fill-rule="nonzero" points="336.893 89.3089909 348.232 89.3089909 348.232 77.5792909 356.094 77.5792909 356.094 107.973191 348.232 107.973191 348.232 95.4323909 336.893 95.4323909 336.893 107.973191 329.041 107.973191 329.041 77.5792909 336.893 77.5792909"></polygon>
            <path d="M381.524,77.5792909 L381.524,94.1042909 C381.524,94.9862909 381.524,95.8987909 381.625,96.8212909 C381.681,97.6915909 381.885,98.5455909 382.23,99.3456909 C382.567,100.100191 383.117,100.739191 383.812,101.181191 C384.735,101.695191 385.783,101.938191 386.836,101.880191 C387.89,101.943191 388.94,101.701191 389.86,101.181191 C390.558,100.727191 391.114,100.084191 391.463,99.3254909 C391.824,98.5298909 392.036,97.6740909 392.088,96.8010909 C392.158,95.8784909 392.188,94.9660909 392.188,94.0840909 L392.188,77.5792909 L400,77.5792909 L400,95.1890909 C400,99.9201909 398.925,103.374191 396.775,105.550191 C394.624,107.726191 391.318,108.815191 386.856,108.815191 C382.388,108.815191 379.075,107.726191 376.918,105.550191 C374.711,103.330191 373.673,99.9640909 373.673,95.1890909 L373.673,77.5792909 L381.524,77.5792909 Z" id="Path" fill="#999999" fill-rule="nonzero"></path>
            <path d="M364.289,103.654191 L375.537,103.654191 L375.537,107.963191 L355.248,107.963191 L365.73,95.1992909 C366.738,93.9218909 367.625,92.8167909 368.331,91.8941909 C368.901,91.1438909 369.429,90.3619909 369.913,89.5522909 C370.578,88.5627909 370.961,87.4094909 371.022,86.2168909 C371.035,85.5526909 370.91,84.8928909 370.655,84.2800909 C370.4,83.6672909 370.02,83.1148909 369.54,82.6583909 C369.054,82.1879909 368.481,81.8186909 367.853,81.5715909 C367.225,81.3245909 366.555,81.2046909 365.881,81.2187909 C362.857,81.2187909 361.083,83.0436909 360.64,86.6730909 L356.094,86.6730909 C356.833,80.2725909 360.049,77.0723909 365.74,77.0723909 C368.306,77.0012909 370.797,77.9480909 372.675,79.7082909 C373.582,80.5298909 374.302,81.5381909 374.788,82.6647909 C375.273,83.7912909 375.511,85.0096909 375.487,86.2371909 C375.474,87.9456909 375.022,89.6218909 374.177,91.1034909 C373.601,92.1302909 372.951,93.1129909 372.231,94.0434909 C371.371,95.1789909 370.293,96.5306909 368.996,98.0987909 L364.289,103.654191 Z" id="Path" fill="#000000" fill-rule="nonzero"></path>
        </g>
    </g>
</svg>