<?xml version="1.0" encoding="UTF-8"?>
<svg viewBox="0 0 24 24" version="1.1" xmlns="http://www.w3.org/2000/svg" xmlns:xlink="http://www.w3.org/1999/xlink">
    <title>help_news</title>
    <g id="Page-1" stroke="none" stroke-width="1" fill="none" fill-rule="evenodd">
        <g id="help_news">
            <rect id="Rectangle" x="0" y="0" width="24" height="24"></rect>
            <path d="M19,5 L19,19 L5,19 L5,5 L19,5 M19,3 L5,3 C3.9,3 3,3.9 3,5 L3,19 C3,20.1 3.9,21 5,21 L19,21 C20.1,21 21,20.1 21,19 L21,5 C21,3.9 20.1,3 19,3 L19,3 Z" id="Shape" fill="#000000" fill-rule="nonzero"></path>
            <path d="M14,17 L7,17 L7,15 L14,15 L14,17 Z M17,13 L7,13 L7,11 L17,11 L17,13 Z M17,9 L7,9 L7,7 L17,7 L17,9 Z" id="Shape" fill="#000000" fill-rule="nonzero"></path>
        </g>
    </g>
</svg>