<?xml version="1.0" encoding="UTF-8"?>
<svg viewBox="0 0 24 24" version="1.1" xmlns="http://www.w3.org/2000/svg" xmlns:xlink="http://www.w3.org/1999/xlink">
    <title>help_inquiry</title>
    <g id="Page-1" stroke="none" stroke-width="1" fill="none" fill-rule="evenodd">
        <g id="help_inquiry">
            <polygon id="Path" points="0 0 24 0 24 24 0 24"></polygon>
            <path d="M15,4 L15,11 L5.17,11 L4.58,11.59 L4,12.17 L4,4 L15,4 M16,2 L3,2 C2.45,2 2,2.45 2,3 L2,17 L6,13 L16,13 C16.55,13 17,12.55 17,12 L17,3 C17,2.45 16.55,2 16,2 Z M21,6 L19,6 L19,15 L6,15 L6,17 C6,17.55 6.45,18 7,18 L18,18 L22,22 L22,7 C22,6.45 21.55,6 21,6 Z" id="Shape" fill="#000000" fill-rule="nonzero"></path>
        </g>
    </g>
</svg>