<svg width="24" height="24" viewBox="0 0 24 24" fill="none" xmlns="http://www.w3.org/2000/svg">
<path d="M12 2C6.48 2 2 6.48 2 12C2 17.52 6.48 22 12 22C17.52 22 22 17.52 22 12C22 6.48 17.52 2 12 2ZM11.85 18C11.15 18 10.59 17.44 10.59 16.74C10.59 16.03 11.15 15.49 11.85 15.49C12.56 15.49 13.1 16.03 13.1 16.74C13.1 17.43 12.56 18 11.85 18ZM14.86 10.6C14.1 11.71 13.38 12.06 12.99 12.77C12.9 12.94 12.84 13.08 12.8 13.36C12.74 13.82 12.37 14.18 11.9 14.18H11.86C11.33 14.18 10.91 13.73 10.96 13.2C10.99 12.87 11.07 12.52 11.26 12.2C11.75 11.33 12.68 10.81 13.22 10.04C13.79 9.23 13.47 7.71 11.85 7.71C11.11 7.71 10.64 8.1 10.34 8.56C10.12 8.9 9.66 9.02 9.27 8.86C8.77 8.65 8.55 8.03 8.86 7.57C9.47 6.66 10.49 6 11.83 6C13.31 6 14.32 6.67 14.84 7.52C15.28 8.24 15.54 9.59 14.86 10.6Z" fill="black"/>
</svg>
