<svg width="400" height="116" viewBox="0 0 400 116" fill="none" xmlns="http://www.w3.org/2000/svg">
<g clip-path="url(#clip0_830:545)">
<path fill-rule="evenodd" clip-rule="evenodd" d="M192.989 59.3782C196.748 60.8926 200.774 61.6239 204.823 61.5279V61.5685C208.863 61.6253 212.874 60.8699 216.62 59.3465C220.366 57.8231 223.771 55.5625 226.637 52.6973C229.502 49.8322 231.77 46.4201 233.306 42.6615C234.843 38.9029 235.618 34.8734 235.585 30.8095C235.668 26.7441 234.914 22.7054 233.37 18.9473C231.826 15.1892 229.526 11.793 226.615 8.97206C220.777 3.23793 212.942 0.0278015 204.783 0.0278015C196.623 0.0278015 188.788 3.23793 182.951 8.97206C180.052 11.7979 177.766 15.1971 176.237 18.9556C174.709 22.714 173.971 26.7501 174.071 30.8095C173.979 34.8785 174.719 38.9231 176.247 42.692C177.775 46.4609 180.056 49.8735 182.951 52.7179C185.814 55.5981 189.229 57.8639 192.989 59.3782ZM210.987 45.7488C209.027 46.5301 206.929 46.8974 204.823 46.8277C202.717 46.896 200.62 46.5277 198.663 45.7457C196.705 44.9636 194.928 43.7847 193.442 42.2821C191.957 40.7796 190.795 38.9856 190.029 37.0119C189.263 35.0381 188.908 32.9269 188.988 30.8095C188.935 28.6835 189.305 26.5682 190.077 24.5883C190.849 22.6085 192.008 20.804 193.484 19.2814C194.96 17.7587 196.724 16.5486 198.672 15.7224C200.621 14.8962 202.714 14.4705 204.828 14.4705C206.942 14.4705 209.035 14.8962 210.984 15.7224C212.932 16.5486 214.696 17.7587 216.172 19.2814C217.649 20.804 218.807 22.6085 219.579 24.5883C220.351 26.5682 220.721 28.6835 220.668 30.8095C220.748 32.9277 220.393 35.0399 219.626 37.0143C218.859 38.9888 217.697 40.7832 216.21 42.2859C214.724 43.7886 212.946 44.9674 210.987 45.7488ZM31.5081 2.74742V1.26726H52.1608V60.2709H37.2332V38.1395H20.7333V60.2709H5.72508V7.94826C5.72508 5.37318 4.03175 2.74742 0 2.74742V1.26726H20.7333V23.3176H37.2332V7.94826C37.2332 5.37318 35.5399 2.74742 31.5081 2.74742ZM124.178 1.26726V46.108L137.392 46.0776V60.2709H109.17V7.93812C109.17 5.37318 107.476 2.74742 103.445 2.74742V1.26726H124.178ZM158.508 46.108V1.26726H137.775V2.74742C141.807 2.74742 143.5 5.37318 143.5 7.93812V60.2709H171.722V46.0776L158.508 46.108ZM76.8048 15.3389V46.108L99.5137 46.0776V60.2709H61.8067V7.74549C61.716 5.24139 60.0126 2.74742 56.0817 2.74742V1.26726H99.1004V15.3389H76.8048ZM96.5604 30.7691C96.5604 32.4819 96.0553 34.1562 95.109 35.5802C94.1627 37.0042 92.8178 38.1139 91.2443 38.7689C89.6709 39.4239 87.9396 39.5948 86.2696 39.2599C84.5996 38.925 83.0658 38.0994 81.8624 36.8876C80.659 35.6757 79.84 34.1321 79.509 32.452C79.178 30.7718 79.3499 29.0307 80.0029 27.4488C80.656 25.867 81.7608 24.5155 83.1777 23.5654C84.5946 22.6152 86.2598 22.1092 87.9627 22.1112C89.0926 22.1112 90.2114 22.3352 91.2552 22.7704C92.299 23.2056 93.2472 23.8435 94.0457 24.6476C94.8443 25.4517 95.4773 26.4062 95.9088 27.4566C96.3403 28.507 96.5617 29.6326 96.5604 30.7691ZM369.248 61.5279C365.199 61.6256 361.172 60.8951 357.413 59.3807C353.653 57.8663 350.238 55.5995 347.376 52.7179C344.478 49.8755 342.193 46.4634 340.664 42.6942C339.134 38.925 338.393 34.8795 338.486 30.8095C338.387 26.7493 339.127 22.7128 340.657 18.9543C342.187 15.1958 344.475 11.797 347.376 8.97203C353.212 3.24094 361.046 0.0327231 369.202 0.0327231C377.359 0.0327231 385.193 3.24094 391.029 8.97203C393.945 11.7899 396.247 15.1856 397.792 18.9445C399.336 22.7033 400.088 26.7434 400 30.8095C400.033 34.8725 399.258 38.9011 397.722 42.6591C396.186 46.417 393.919 49.8286 391.055 52.6936C388.19 55.5587 384.786 57.8195 381.041 59.3435C377.297 60.8675 373.287 61.6239 369.248 61.5684V61.5279ZM369.248 46.8277C371.353 46.896 373.45 46.5276 375.408 45.7456C377.366 44.9636 379.143 43.7846 380.628 42.2821C382.114 40.7795 383.276 38.9856 384.042 37.0118C384.808 35.0381 385.162 32.9268 385.082 30.8095C385.136 28.6834 384.766 26.5682 383.993 24.5883C383.221 22.6084 382.063 20.804 380.587 19.2813C379.111 17.7587 377.347 16.5486 375.398 15.7224C373.45 14.8961 371.357 14.4705 369.243 14.4705C367.128 14.4705 365.035 14.8961 363.087 15.7224C361.139 16.5486 359.375 17.7587 357.898 19.2813C356.422 20.804 355.264 22.6084 354.492 24.5883C353.72 26.5682 353.35 28.6834 353.403 30.8095C353.323 32.9277 353.677 35.0398 354.444 37.0143C355.211 38.9887 356.374 40.7832 357.861 42.2859C359.347 43.7886 361.125 44.9674 363.084 45.7487C365.043 46.5301 367.141 46.8974 369.248 46.8277ZM332.118 31.4241C330.364 34.3745 327.853 36.7957 324.848 38.4335L336.953 60.2709H320.826L310.556 41.2215H305.193V60.2709H290.195V7.94825C290.195 5.37317 288.502 2.74741 284.47 2.74741V1.28752H313.7C316.458 1.2121 319.203 1.6866 321.777 2.68364C324.351 3.68068 326.703 5.18052 328.698 7.09665C330.702 8.93758 332.287 11.1927 333.343 13.7074C334.399 16.222 334.902 18.9366 334.817 21.6651C334.804 25.1027 333.872 28.4736 332.118 31.4241ZM305.234 28.3866H313.539V28.4475C317.218 28.5286 319.819 25.8217 319.819 21.8678C319.819 17.914 317.218 15.2071 313.539 15.2071H305.234V28.3866ZM257.871 46.108V15.3389H280.207V1.26726H237.148V2.74742C241.079 2.74742 242.782 5.24139 242.873 7.74549V60.2709H280.58V46.0776L257.871 46.108ZM276.175 35.5802C277.121 34.1562 277.626 32.4819 277.626 30.7691C277.628 29.6326 277.406 28.507 276.975 27.4566C276.543 26.4062 275.91 25.4517 275.112 24.6476C274.313 23.8435 273.365 23.2056 272.321 22.7704C271.277 22.3352 270.159 22.1112 269.029 22.1112C267.326 22.1092 265.66 22.6152 264.244 23.5654C262.827 24.5155 261.722 25.867 261.069 27.4488C260.416 29.0307 260.244 30.7718 260.575 32.452C260.906 34.1321 261.725 35.6757 262.928 36.8876C264.132 38.0994 265.665 38.925 267.336 39.2599C269.006 39.5948 270.737 39.4239 272.31 38.7689C273.884 38.1139 275.229 37.0042 276.175 35.5802Z" fill="white"/>
<path d="M109.14 79.9896V107.981H113.716V98.3395H119.4C120.604 98.3597 121.8 98.1386 122.918 97.6891C124.036 97.2396 125.054 96.5707 125.913 95.7214C126.771 94.8721 127.453 93.8594 127.918 92.7424C128.384 91.6254 128.623 90.4263 128.623 89.2152C128.661 87.9936 128.447 86.7772 127.994 85.643C127.542 84.5087 126.86 83.4813 125.992 82.6255C125.134 81.7607 124.109 81.081 122.981 80.6279C121.853 80.1747 120.645 79.9575 119.431 79.9896H109.14ZM113.716 94.0612V84.3084H119.4C120.686 84.3084 121.919 84.8221 122.828 85.7366C123.738 86.6512 124.248 87.8915 124.248 89.1848C124.248 90.4781 123.738 91.7184 122.828 92.6329C121.919 93.5475 120.686 94.0612 119.4 94.0612H113.716ZM140.315 108.478C141.716 108.521 143.111 108.282 144.417 107.773C145.724 107.264 146.916 106.496 147.922 105.515C148.928 104.534 149.728 103.36 150.274 102.062C150.821 100.764 151.102 99.3687 151.102 97.9593C151.102 96.5499 150.821 95.1548 150.274 93.8569C149.728 92.559 148.928 91.3846 147.922 90.4036C146.916 89.4226 145.724 88.6548 144.417 88.1459C143.111 87.637 141.716 87.3973 140.315 87.441C138.914 87.3973 137.519 87.637 136.213 88.1459C134.906 88.6548 133.714 89.4226 132.708 90.4036C131.702 91.3846 130.902 92.559 130.356 93.8569C129.809 95.1548 129.528 96.5499 129.528 97.9593C129.528 99.3687 129.809 100.764 130.356 102.062C130.902 103.36 131.702 104.534 132.708 105.515C133.714 106.496 134.906 107.264 136.213 107.773C137.519 108.282 138.914 108.521 140.315 108.478ZM135.9 102.476C134.754 101.255 134.116 99.6387 134.116 97.9593C134.116 96.2799 134.754 94.664 135.9 93.4428C137.084 92.2907 138.667 91.6466 140.315 91.6466C141.963 91.6466 143.546 92.2907 144.73 93.4428C145.876 94.664 146.514 96.2799 146.514 97.9593C146.514 99.6387 145.876 101.255 144.73 102.476C143.548 103.633 141.964 104.28 140.315 104.28C138.666 104.28 137.082 103.633 135.9 102.476ZM172.922 101.766L168.779 87.9682H164.687L160.514 101.766L156.654 87.9682H152.128L158.367 107.961H162.58L166.753 94.487L170.886 107.961H175.099L181.348 87.9682H176.812L172.922 101.766ZM202.938 99.7994C203.031 99.2056 203.081 98.6059 203.089 98.0049C203.15 95.2371 202.138 92.554 200.267 90.523C199.362 89.5283 198.254 88.7417 197.019 88.2169C195.784 87.692 194.451 87.4412 193.111 87.4816C191.711 87.4333 190.317 87.6788 189.018 88.2025C187.718 88.7261 186.541 89.5164 185.561 90.523C183.658 92.5578 182.598 95.2464 182.598 98.0404C182.598 100.834 183.658 103.523 185.561 105.558C186.602 106.555 187.832 107.331 189.178 107.839C190.523 108.348 191.957 108.579 193.393 108.518C197.253 108.518 200.146 107.079 202.102 104.159L198.564 102.131C197.987 102.947 197.213 103.603 196.316 104.037C195.419 104.472 194.427 104.67 193.433 104.615C190.127 104.615 187.708 102.932 187.073 99.8906L202.938 99.7994ZM187.073 96.3119C187.289 94.8811 188.03 93.5833 189.149 92.6735C190.268 91.7637 191.685 91.3076 193.121 91.3949C194.501 91.3623 195.844 91.8478 196.887 92.7569C197.931 93.6659 198.6 94.9333 198.765 96.3119H187.073ZM211.163 87.9986H206.869V107.991H211.163V97.9036C211.163 95.8759 211.758 94.3856 212.997 93.5036C214.231 92.5816 215.762 92.1551 217.291 92.3073V87.6235C214.267 87.6235 212.252 88.8604 211.163 91.3442V87.9986ZM238.76 99.8298C238.853 99.236 238.903 98.6363 238.911 98.0353C238.972 95.2675 237.96 92.5844 236.089 90.5534C235.184 89.5587 234.076 88.7721 232.841 88.2473C231.606 87.7224 230.273 87.4716 228.933 87.512C227.533 87.4637 226.139 87.7092 224.84 88.2329C223.54 88.7566 222.363 89.5469 221.383 90.5534C219.48 92.5882 218.42 95.2769 218.42 98.0708C218.42 100.865 219.48 103.553 221.383 105.588C222.424 106.585 223.654 107.361 225 107.87C226.345 108.378 227.779 108.609 229.215 108.549C233.075 108.549 235.978 107.109 237.924 104.189L234.386 102.162C233.809 102.978 233.036 103.633 232.138 104.068C231.241 104.502 230.249 104.701 229.255 104.645C225.949 104.645 223.53 102.962 222.895 99.921L238.76 99.8298ZM222.895 96.3119C223.112 94.8811 223.852 93.5833 224.971 92.6735C226.09 91.7637 227.507 91.3076 228.943 91.3949C230.323 91.3623 231.666 91.8478 232.709 92.7569C233.753 93.6659 234.422 94.9333 234.587 96.3119H222.895ZM258.314 90.8373C257.527 89.7362 256.478 88.8511 255.263 88.2631C254.048 87.6751 252.706 87.4029 251.359 87.4715C250.046 87.453 248.744 87.7145 247.538 88.2387C246.332 88.7629 245.251 89.538 244.364 90.5129C242.497 92.5499 241.461 95.2191 241.461 97.9897C241.461 100.76 242.497 103.43 244.364 105.467C245.25 106.443 246.331 107.219 247.537 107.743C248.743 108.268 250.046 108.528 251.359 108.508C252.71 108.579 254.055 108.304 255.272 107.711C256.488 107.117 257.535 106.223 258.314 105.112V107.991H262.608V79.9896H258.314V90.8373ZM247.539 102.587C246.952 101.981 246.491 101.262 246.185 100.473C245.879 99.684 245.732 98.8414 245.755 97.9948C245.728 97.1522 245.872 96.3129 246.179 95.5283C246.486 94.7438 246.949 94.0306 247.539 93.4327C248.743 92.256 250.356 91.5977 252.035 91.5977C253.714 91.5977 255.326 92.256 256.53 93.4327C257.121 94.0306 257.584 94.7438 257.891 95.5283C258.198 96.3129 258.342 97.1522 258.314 97.9948C258.337 98.8414 258.191 99.684 257.885 100.473C257.578 101.262 257.118 101.981 256.53 102.587C255.317 103.745 253.708 104.391 252.035 104.391C250.362 104.391 248.753 103.745 247.539 102.587ZM288.552 87.4715C287.206 87.4029 285.864 87.6751 284.649 88.2631C283.434 88.8511 282.385 89.7362 281.598 90.8373V79.9896H277.304V107.981H281.598V105.102C282.381 106.208 283.429 107.099 284.644 107.693C285.859 108.286 287.203 108.563 288.552 108.498C289.876 108.525 291.19 108.268 292.407 107.743C293.623 107.219 294.715 106.439 295.608 105.456C297.475 103.419 298.512 100.75 298.512 97.9796C298.512 95.2089 297.475 92.5397 295.608 90.5027C294.713 89.5221 293.621 88.7439 292.405 88.2196C291.189 87.6953 289.875 87.4368 288.552 87.4613V87.4715ZM283.392 102.577C282.801 101.973 282.337 101.254 282.029 100.465C281.72 99.6759 281.574 98.8322 281.598 97.9847C281.57 97.1411 281.714 96.3008 282.023 95.516C282.332 94.7311 282.798 94.0186 283.392 93.4225C284.594 92.2465 286.205 91.5885 287.882 91.5885C289.559 91.5885 291.17 92.2465 292.372 93.4225C292.963 94.0205 293.426 94.7337 293.733 95.5182C294.04 96.3027 294.184 97.1421 294.157 97.9847C294.179 98.8312 294.033 99.6738 293.727 100.463C293.42 101.251 292.96 101.97 292.372 102.577C291.161 103.735 289.553 104.38 287.882 104.38C286.211 104.38 284.604 103.735 283.392 102.577ZM309.87 102.496L303.944 87.9885H299.247L307.683 107.616L307.481 108.021C306.403 110.779 304.901 112.077 302.19 111.935V115.99C306.766 116.264 309.981 113.79 311.896 108.63L319.516 87.9885H314.94L309.87 102.496Z" fill="white"/>
<path d="M336.893 89.3368H348.232V77.6071H356.094V108.001H348.232V95.4602H336.893V108.001H329.041V77.6071H336.893V89.3368Z" fill="#E60032"/>
<path d="M381.524 77.6071V94.1321C381.524 95.0141 381.524 95.9266 381.625 96.8491C381.681 97.7194 381.885 98.5734 382.23 99.3735C382.567 100.128 383.117 100.767 383.812 101.209C384.735 101.723 385.783 101.966 386.836 101.908C387.89 101.971 388.94 101.729 389.86 101.209C390.558 100.755 391.114 100.112 391.463 99.3533C391.824 98.5577 392.036 97.7019 392.088 96.8289C392.158 95.9063 392.188 94.9939 392.188 94.1119V77.6071H400V95.2169C400 99.948 398.925 103.402 396.775 105.578C394.624 107.754 391.318 108.843 386.856 108.843C382.388 108.843 379.075 107.754 376.918 105.578C374.711 103.358 373.673 99.9919 373.673 95.2169V77.6071H381.524Z" fill="#E60032"/>
<path d="M364.289 103.682H375.537V107.991H355.248L365.73 95.2271C366.738 93.9497 367.625 92.8446 368.331 91.922C368.901 91.1717 369.429 90.3898 369.913 89.5801C370.578 88.5906 370.961 87.4373 371.022 86.2447C371.035 85.5805 370.91 84.9207 370.655 84.3079C370.4 83.6951 370.02 83.1427 369.54 82.6862C369.054 82.2158 368.481 81.8465 367.853 81.5994C367.225 81.3524 366.555 81.2325 365.881 81.2466C362.857 81.2466 361.083 83.0715 360.64 86.7009H356.094C356.833 80.3004 360.049 77.1002 365.74 77.1002C368.306 77.0291 370.797 77.9759 372.675 79.7361C373.582 80.5577 374.302 81.566 374.788 82.6926C375.273 83.8191 375.511 85.0375 375.487 86.265C375.474 87.9735 375.022 89.6497 374.177 91.1313C373.601 92.1581 372.951 93.1408 372.231 94.0713C371.371 95.2068 370.293 96.5585 368.996 98.1266L364.289 103.682Z" fill="white"/>
</g>
<defs>
<clipPath id="clip0_830:545">
<rect width="400" height="116" fill="white"/>
</clipPath>
</defs>
</svg>
